<?xml version="1.0" standalone="no"?>
<!DOCTYPE svg PUBLIC "-//W3C//DTD SVG 1.1//EN" "http://www.w3.org/Graphics/SVG/1.1/DTD/svg11.dtd" >
<!--
2013-9-30: Created.
-->
<svg>
<metadata>
Created by iconfont
</metadata>
<defs>

<font id="iconfont" horiz-adv-x="1024" >
  <font-face
    font-family="iconfont"
    font-weight="500"
    font-stretch="normal"
    units-per-em="1024"
    ascent="896"
    descent="-128"
  />
    <missing-glyph />
    
    <glyph glyph-name="x" unicode="x" horiz-adv-x="1001"
d="M281 543q-27 -1 -53 -1h-83q-18 0 -36.5 -6t-32.5 -18.5t-23 -32t-9 -45.5v-76h912v41q0 16 -0.5 30t-0.5 18q0 13 -5 29t-17 29.5t-31.5 22.5t-49.5 9h-133v-97h-438v97zM955 310v-52q0 -23 0.5 -52t0.5 -58t-10.5 -47.5t-26 -30t-33 -16t-31.5 -4.5q-14 -1 -29.5 -0.5
t-29.5 0.5h-32l-45 128h-439l-44 -128h-29h-34q-20 0 -45 1q-25 0 -41 9.5t-25.5 23t-13.5 29.5t-4 30v167h911zM163 247q-12 0 -21 -8.5t-9 -21.5t9 -21.5t21 -8.5q13 0 22 8.5t9 21.5t-9 21.5t-22 8.5zM316 123q-8 -26 -14 -48q-5 -19 -10.5 -37t-7.5 -25t-3 -15t1 -14.5
t9.5 -10.5t21.5 -4h37h67h81h80h64h36q23 0 34 12t2 38q-5 13 -9.5 30.5t-9.5 34.5q-5 19 -11 39h-368zM336 498v228q0 11 2.5 23t10 21.5t20.5 15.5t34 6h188q31 0 51.5 -14.5t20.5 -52.5v-227h-327z" />
    

    
    <glyph glyph-name="advicecopy" unicode="&#58897;" d="M1013.761536 896H112.641536A113.152 113.152 0 0 1 0.001536 782.2848v-625.5104a113.152 113.152 0 0 1 112.64-113.7664h56.32v-170.5472l211.2 170.5472H1013.761536a113.152 113.152 0 0 1 112.64 113.7664V782.2848A113.152 113.152 0 0 1 1013.761536 896z m-112.64-605.5424H225.281536V385.1264h675.84v-94.6688z m0 249.0368H225.281536V632.9856h675.84v-93.4912z"  horiz-adv-x="1126" />

    
    <glyph glyph-name="gondicopy" unicode="&#58898;" d="M0-128V896h1024v-1024H0z m853.317818 534.528V716.8H162.117818v-357.794909l-3.025454-3.025455 3.025454-3.025454v-318.836364h691.2v366.312727l3.025455 3.072-3.025455 3.025455zM768 315.112727v-195.630545h-195.677091L768 315.112727z m-460.194909-195.630545L768 579.677091v-143.872l-316.322909-316.322909H307.805091z m-60.322909 204.194909l307.805091 307.805091h143.825454l-451.630545-451.677091v143.825454z m0 307.805091h187.112727l-187.112727-187.112727v187.112727z"  horiz-adv-x="1024" />

    
    <glyph glyph-name="casecopy" unicode="&#58899;" d="M602.453333 838.997333h-0.487619v-44.373333h-218.940952v44.373333C383.024762 893.903238 400.822857 896 458.703238 896h68.120381c58.514286 0 75.629714-2.096762 75.629714-57.002667z m-143.750095-966.948571c-57.929143 0-75.678476 2.096762-75.678476 57.051428V766.098286h219.428571V-70.948571c0-54.905905-8.582095-57.002667-75.580952-57.002667H458.654476z m594.944 142.531048l7.509333-27.452953c17.16419-67.047619 23.600762-67.584-41.301333-82.895238l-109.421714-25.35619c-56.368762-13.165714-59.001905-11.556571-72.996572 41.74019l-11.215238 40.618667 227.425524 53.345524z m-148.577524 537.843809l133.022476-482.450286-227.474285-53.296762-129.26781 469.23581c-13.945905 53.296762-11.800381 55.929905 44.519619 69.144381l109.421715 25.35619c56.856381 13.165714 59.587048 11.556571 69.729523-28.038095zM0-70.948571v48.030476h293.449143v-48.030476c0-54.905905-2.681905-57.002667-60.611048-57.002667H60.611048C2.681905-127.951238 0-125.854476 0-70.89981zM0 496.981333h293.449143v-413.257143H0V496.981333z m0-441.782857h293.449143v-50.127238H0v50.127238zM293.449143 625.761524v-71.777524H0V625.761524c0 54.905905 2.145524 57.002667 60.611048 57.002666h172.227047c57.929143 0 60.611048-2.096762 60.611048-57.002666z"  horiz-adv-x="1072" />

    
    <glyph glyph-name="homecopy" unicode="&#58900;" d="M1086.850559 306.166993v-383.063856c0-13.848031-4.973589-25.843157-14.920766-35.936617a48.029264 48.029264 0 0 0-35.40025-15.16457h-301.974854v306.460837h-201.284063V-127.99805H231.295771a48.029264 48.029264 0 0 0-35.40025 15.16457 49.443324 49.443324 0 0 0-14.920766 35.936617v383.063856c0 0.536367 0.146282 1.316538 0.390085 2.438034a10.971152 10.971152 0 0 1 0.390086 2.340512L633.912657 689.27961l452.157731-378.334071a11.214955 11.214955 0 0 0 0.780171-4.778546z m175.343384 55.099562l-48.760674-59.097937a26.623328 26.623328 0 0 0-16.481108-8.776922h-2.389273a23.941491 23.941491 0 0 0-16.481108 5.607478L633.912657 759.44622 89.743534 298.999174a28.91508 28.91508 0 0 0-18.870381-5.607478 26.623328 26.623328 0 0 0-16.481108 8.776922l-48.760674 59.097937a26.135721 26.135721 0 0 0-5.509956 18.724099 23.258842 23.258842 0 0 0 8.630639 17.163757L574.132071 875.20406A90.987418 90.987418 0 0 0 633.912657 895.976107c23.063799 0 43.006915-6.924016 59.780587-20.772047l191.873252-162.811891V868.036241a24.282816 24.282816 0 0 0 25.160508 25.550593h150.963047a24.282816 24.282816 0 0 0 25.160508-25.550593V542.46122l172.222701-145.258048a23.307602 23.307602 0 0 0 8.63064-17.163758 26.135721 26.135721 0 0 0-5.509957-18.724099z"  horiz-adv-x="1268" />

    
    <glyph glyph-name="messagecopy" unicode="&#58901;" d="M1022.049524 384.975238a127.073524 127.073524 0 0 1-85.187048 119.661714V768.24381A127.902476 127.902476 0 0 1 809.106286 896a127.951238 127.951238 0 0 1-127.561143-120.198095c-26.819048-38.13181-230.204952-178.127238-373.028572-178.127238l-95.573333 0.243809A213.187048 213.187048 0 0 1 0 384.975238a213.284571 213.284571 0 0 1 170.325333-208.603428v-174.616381a127.902476 127.902476 0 0 1 255.707429 0v159.256381c115.565714-37.546667 238.006857-134.826667 255.463619-165.302858a127.951238 127.951238 0 0 1 127.609905-121.709714 127.902476 127.902476 0 0 1 127.75619 127.756191v263.606857a127.073524 127.073524 0 0 1 85.138286 119.612952z m-170.374095-383.268571a42.617905 42.617905 0 0 0-85.138286 0V768.24381a42.617905 42.617905 0 0 0 85.138286 0v-766.537143z"  horiz-adv-x="1024" />

    
    <glyph glyph-name="SliceCopy" unicode="&#58902;" d="M558.250667 719.5648h-0.341334v-31.061333h-153.258666v31.061333c0 38.434133 12.424533 39.901867 52.974933 39.901867h47.684267c40.96 0 52.9408-1.467733 52.9408-39.901867z m-100.625067-676.864c-40.5504 0-52.974933 1.467733-52.974933 39.936V668.535467h153.6V82.602667c0-38.434133-6.007467-39.901867-52.906667-39.901867h-47.7184z m416.4608 99.771733l5.256533-19.217066c12.014933-46.933333 16.520533-47.3088-28.910933-58.026667l-76.5952-17.749333c-39.458133-9.216-41.301333-8.0896-51.0976 29.218133l-7.850667 28.433067 159.197867 37.341866z m-104.004267 376.490667l93.115734-337.7152-159.232-37.307733-90.487467 328.465066c-9.762133 37.307733-8.260267 39.150933 31.163733 48.401067l76.5952 17.749333c39.799467 9.216 41.710933 8.0896 48.810667-19.626666zM136.533333 82.602667v33.621333h205.4144v-33.621333c0-38.434133-1.877333-39.901867-42.427733-39.901867H178.961067c-40.5504 0-42.427733 1.467733-42.427734 39.936z m0 397.550933h205.4144v-289.28H136.533333v289.28z m0-309.248h205.4144v-35.089067H136.533333v35.089067z m205.4144 399.394133v-50.244266H136.533333V570.299733c0 38.434133 1.501867 39.901867 42.427734 39.901867h120.558933c40.5504 0 42.427733-1.467733 42.427733-39.901867z"  horiz-adv-x="1024" />

    
    <glyph glyph-name="Slice" unicode="&#58903;" d="M794.9312 312.456533v-268.151466c0-9.693867-3.4816-18.090667-10.4448-25.156267a33.621333 33.621333 0 0 0-24.7808-10.615467h-211.387733v214.528h-140.9024V8.533333H196.027733a33.621333 33.621333 0 0 0-24.7808 10.615467 34.6112 34.6112 0 0 0-10.4448 25.156267v268.151466c0 0.375467 0.1024 0.9216 0.273067 1.706667a7.68 7.68 0 0 1 0.273067 1.6384L477.866667 580.642133l316.5184-264.840533a7.850667 7.850667 0 0 0 0.546133-3.345067z m122.743467 38.570667l-34.133334-41.3696a18.6368 18.6368 0 0 0-11.537066-6.144h-1.672534a16.759467 16.759467 0 0 0-11.537066 3.925333L477.866667 629.76 96.938667 307.438933a20.241067 20.241067 0 0 0-13.2096-3.925333 18.6368 18.6368 0 0 0-11.537067 6.144l-34.133333 41.3696a18.295467 18.295467 0 0 0-3.857067 13.1072 16.2816 16.2816 0 0 0 6.0416 12.014933l395.776 334.6432A63.6928 63.6928 0 0 0 477.866667 725.333333c16.145067 0 30.1056-4.846933 41.847466-14.5408l134.314667-113.9712V705.774933a16.9984 16.9984 0 0 0 17.6128 17.885867h105.6768a16.9984 16.9984 0 0 0 17.6128-17.885867v-227.9424l120.558933-101.6832a16.315733 16.315733 0 0 0 6.0416-12.014933 18.295467 18.295467 0 0 0-3.857066-13.1072z"  horiz-adv-x="1024" />

    
    <glyph glyph-name="vipcopy" unicode="&#58904;" d="M581.827048 473.283048a331.629714 331.629714 0 0 1-84.992-50.663619 352.841143 352.841143 0 0 1-66.80381-72.411429 334.457905 334.457905 0 0 1-59.001905-191.000381 326.704762 326.704762 0 0 1 12.190477-90.063238c8.192-28.623238 19.553524-55.637333 34.133333-80.993524h-24.527238c-17.554286 0-38.034286 0.585143-61.342476 1.804191a2189.507048 2189.507048 0 0 0-72.265143 4.973714 2937.709714 2937.709714 0 0 0-74.020572 7.265524 1719.344762 1719.344762 0 0 0-66.803809 8.582095c-19.992381 3.023238-36.961524 6.046476-50.907429 9.069714-13.945905 2.974476-22.723048 5.997714-26.331428 9.020953-6.680381 4.87619-11.702857 19.797333-15.018667 44.81219-3.31581 25.063619-1.950476 57.197714 4.096 96.402286 2.438095 15.11619 7.41181 27.452952 15.018667 37.107809a109.714286 109.714286 0 0 0 27.696762 24.868572c10.922667 6.972952 23.015619 12.53181 36.37638 16.774095 13.312 4.242286 26.916571 8.289524 40.862477 12.190476 13.945905 3.949714 27.40419 8.192 40.472381 12.678095 12.970667 4.534857 24.966095 10.142476 35.84 16.774096 12.726857 7.801905 22.576762 15.506286 29.549714 23.064381 6.972952 7.558095 11.995429 14.921143 15.018667 22.186666a58.026667 58.026667 0 0 1 4.534857 22.625524c0 7.801905-0.292571 16.579048-0.926476 26.233905-1.219048 13.897143-6.046476 24.868571-14.531048 33.060571a480.01219 480.01219 0 0 1-28.184381 24.868572c-4.87619 4.242286-9.264762 10.142476-13.165714 17.651809a224.694857 224.694857 0 0 0-10.435048 23.113143 1544.094476 1544.094476 0 0 0-9.118476 28.038095 41.642667 41.642667 0 0 0-12.678095 6.339048 82.310095 82.310095 0 0 0-11.849143 12.678095 71.387429 71.387429 0 0 0-10.873905 23.552 79.286857 79.286857 0 0 0-3.657143 28.038095 65.340952 65.340952 0 0 0 5.461333 22.625524c2.438095 6.631619 6.339048 12.970667 11.800381 19.017143 0 22.918095 1.219048 45.83619 3.657143 68.754286 2.438095 19.309714 6.631619 40.131048 12.678096 62.464 6.095238 22.332952 15.457524 42.276571 28.18438 59.733333 12.141714 16.920381 25.161143 30.622476 39.107048 41.20381 13.897143 10.581333 28.42819 18.870857 43.593143 24.868571 15.11619 6.046476 30.134857 10.142476 44.958476 12.239238 14.872381 2.096762 29.257143 3.169524 43.203048 3.169524 17.554286 0 34.962286-1.950476 52.224-5.851429 17.261714-3.949714 33.499429-9.264762 48.615619-15.847619 15.11619-6.680381 28.623238-14.189714 40.472381-22.674285 11.800381-8.43581 21.016381-16.871619 27.696762-25.356191 15.750095-19.260952 27.257905-40.521143 34.523428-63.780571 7.265524-23.210667 12.434286-45.397333 15.457524-66.511238 3.023238-24.137143 4.534857-48.566857 4.534857-73.337905a31.548952 31.548952 0 0 0 9.996191-11.751619c2.438095-4.242286 4.388571-9.654857 5.851428-16.286476 1.560381-6.631619 1.706667-14.774857 0.487619-24.429715-1.219048-13.312-3.754667-23.698286-7.704381-31.207619-3.900952-7.606857-8.289524-13.458286-13.165714-17.700571a45.83619 45.83619 0 0 0-17.261714-9.947429 279.405714 279.405714 0 0 1-3.657143-11.751619l-4.534857-12.678095c-1.219048-4.242286-2.730667-8.777143-4.534857-13.604571z m129.901714-28.91581c39.399619 0 76.507429-7.558095 111.323428-22.674286 34.864762-15.067429 65.145905-35.59619 90.892191-61.537523a295.643429 295.643429 0 0 0 61.342476-90.940953c15.11619-34.718476 22.674286-71.68 22.674286-110.884571 0-39.253333-7.558095-76.214857-22.674286-110.884572a295.740952 295.740952 0 0 0-61.342476-90.940952c-25.746286-25.990095-56.07619-46.32381-90.892191-61.147429a281.941333 281.941333 0 0 0-111.323428-22.137904 284.281905 284.281905 0 0 0-203.093333 83.285333 295.838476 295.838476 0 0 0-61.293715 90.940952 274.041905 274.041905 0 0 0-22.723047 110.884572c0 39.204571 7.558095 76.166095 22.723047 110.884571 15.11619 34.669714 35.59619 64.999619 61.293715 90.940953a287.695238 287.695238 0 0 0 90.89219 61.537523 279.30819 279.30819 0 0 0 112.201143 22.674286z m167.253333-229.912381a36.473905 36.473905 0 0 1-5.022476 33.01181 57.002667 57.002667 0 0 1-27.745524 21.26019 52.175238 52.175238 0 0 1-34.523428 0.926476c-11.50781-3.608381-19.992381-12.970667-25.404953-28.038095-3.072-10.24-5.948952-19.797333-8.679619-28.525714-2.681905-8.777143-5.412571-17.944381-8.143238-27.599238-2.730667-9.654857-6.046476-20.089905-9.99619-31.207619-3.949714-11.215238-8.97219-24.039619-15.018667-38.521905-6.046476-15.652571-14.677333-23.064381-25.84381-22.137905-11.215238 0.877714-19.894857 7.363048-25.941333 19.456a386.194286 386.194286 0 0 0-18.627047 38.912 13950.293333 13950.293333 0 0 0-16.822858 40.716191c-5.461333 13.263238-10.288762 25.35619-14.531047 36.230095a521.898667 521.898667 0 0 1-10.922667 26.233905 28.623238 28.623238 0 0 1-24.039619 16.286476 64.512 64.512 0 0 1-59.099429-26.233905 30.524952 30.524952 0 0 1-3.169523-31.695238c4.242286-12.04419 9.069714-25.648762 14.531047-40.716191 5.461333-15.11619 11.215238-30.47619 17.261715-46.177523 6.095238-15.701333 11.849143-31.061333 17.261714-46.177524 5.461333-15.067429 10.337524-28.038095 14.579809-38.912 9.069714-22.918095 22.869333-40.131048 41.301334-51.590095 18.529524-11.459048 37.888-17.505524 58.172952-18.090667 20.284952-0.585143 39.69219 3.900952 58.172952 13.555809 18.480762 9.654857 31.939048 24.137143 40.42362 43.446858a4185.721905 4185.721905 0 0 1 40.47238 99.571809 1990.070857 1990.070857 0 0 1 31.305143 86.016z"  horiz-adv-x="1024" />

    
    <glyph glyph-name="gongsicopy" unicode="&#58906;" d="M1008.165839-40.541846H957.990273V579.298619a45.614152 45.614152 0 0 1-23.551797 40.401105L680.581759 767.992262a47.010503 47.010503 0 0 1-47.103593 0.511995 47.941404 47.941404 0 0 1-23.551796-40.401105v-767.621007h-53.247541V848.794473c0 15.825318-8.191929 30.719735-21.503814 39.377115a47.522499 47.522499 0 0 1-44.543615 4.095964L94.812273 721.447209a47.475954 47.475954 0 0 1-28.671753-43.473079v-719.027972H16.476949a16.476949 16.476949 0 0 1-16.383858-16.383858v-54.178441c0-9.21592 7.679934-16.383859 16.383858-16.383859h991.176895a16.476949 16.476949 0 0 1 16.383858 16.383859v54.178441a15.592593 15.592593 0 0 1-15.825318 16.895854zM286.810615 10.564621a15.825318 15.825318 0 0 0-15.685683-15.685682H220.577005a15.825318 15.825318 0 0 0-15.685683 15.685682v50.547928a15.825318 15.825318 0 0 0 15.685683 15.685682h50.547927a15.825318 15.825318 0 0 0 15.685683-15.685682v-50.547928z m0 122.878939a15.825318 15.825318 0 0 0-15.685683-15.685682H220.577005a15.825318 15.825318 0 0 0-15.685683 15.685682v50.547927a15.825318 15.825318 0 0 0 15.685683 15.685683h50.547927a15.825318 15.825318 0 0 0 15.685683-15.685683v-50.547927z m0 163.838585a15.825318 15.825318 0 0 0-15.685683-15.685682H220.577005a15.825318 15.825318 0 0 0-15.685683 15.685682v50.547927a15.825318 15.825318 0 0 0 15.685683 15.685683h50.547927a15.825318 15.825318 0 0 0 15.685683-15.685683v-50.547927z m0 122.878939a15.825318 15.825318 0 0 0-15.685683-15.685683H220.577005a15.825318 15.825318 0 0 0-15.685683 15.685683V470.709011a15.825318 15.825318 0 0 0 15.685683 15.685683h50.547927a15.825318 15.825318 0 0 0 15.685683-15.685683v-50.547927z m0 122.878939a15.825318 15.825318 0 0 0-15.685683-15.685683H220.577005a15.825318 15.825318 0 0 0-15.685683 15.685683V593.58795a15.825318 15.825318 0 0 0 15.685683 15.685683h50.547927a15.825318 15.825318 0 0 0 15.685683-15.685683v-50.547927z m163.838585-532.475402a15.825318 15.825318 0 0 0-15.685683-15.685682H384.41559a15.825318 15.825318 0 0 0-15.685683 15.685682v50.547928a15.825318 15.825318 0 0 0 15.685683 15.685682h50.035931a15.825318 15.825318 0 0 0 15.685683-15.685682l0.511996-50.547928z m0 122.878939a15.825318 15.825318 0 0 0-15.685683-15.685682H384.41559a15.825318 15.825318 0 0 0-15.685683 15.685682v50.547927a15.825318 15.825318 0 0 0 15.685683 15.685683h50.035931a15.825318 15.825318 0 0 0 15.685683-15.685683l0.511996-50.547927z m0 163.838585a15.825318 15.825318 0 0 0-15.685683-15.685682H384.41559a15.825318 15.825318 0 0 0-15.685683 15.685682v50.547927a15.825318 15.825318 0 0 0 15.685683 15.685683h50.035931a15.825318 15.825318 0 0 0 15.685683-15.685683l0.511996-50.547927z m0 122.878939a15.825318 15.825318 0 0 0-15.685683-15.685683H384.41559a15.825318 15.825318 0 0 0-15.685683 15.685683V470.709011a15.825318 15.825318 0 0 0 15.685683 15.685683h50.035931a15.825318 15.825318 0 0 0 15.685683-15.685683l0.511996-50.547927z m0 122.878939a15.825318 15.825318 0 0 0-15.685683-15.685683H384.41559a15.825318 15.825318 0 0 0-15.685683 15.685683V593.58795a15.825318 15.825318 0 0 0 15.685683 15.685683h50.035931a15.825318 15.825318 0 0 0 15.685683-15.685683l0.511996-50.547927z m0 122.878939a15.825318 15.825318 0 0 0-15.685683-15.685683H384.41559a15.825318 15.825318 0 0 0-15.685683 15.685683V716.466889a15.825318 15.825318 0 0 0 15.685683 15.685682h50.035931a15.825318 15.825318 0 0 0 15.685683-15.685682l0.511996-50.547927z m368.636816-655.354341a15.825318 15.825318 0 0 0-15.685683-15.685682h-50.547927a15.825318 15.825318 0 0 0-15.685682 15.685682v50.547928a15.825318 15.825318 0 0 0 15.685682 15.685682h50.547927a15.825318 15.825318 0 0 0 15.685683-15.685682v-50.547928z m0 122.878939a15.825318 15.825318 0 0 0-15.685683-15.685682h-50.547927a15.825318 15.825318 0 0 0-15.685682 15.685682v50.547927a15.825318 15.825318 0 0 0 15.685682 15.685683h50.547927a15.825318 15.825318 0 0 0 15.685683-15.685683v-50.547927z m0 163.838585a15.825318 15.825318 0 0 0-15.685683-15.685682h-50.547927a15.825318 15.825318 0 0 0-15.685682 15.685682v50.547927a15.825318 15.825318 0 0 0 15.685682 15.685683h50.547927a15.825318 15.825318 0 0 0 15.685683-15.685683v-50.547927z m0 122.878939a15.825318 15.825318 0 0 0-15.685683-15.685683h-50.547927a15.825318 15.825318 0 0 0-15.685682 15.685683V470.709011a15.825318 15.825318 0 0 0 15.685682 15.685683h50.547927a15.825318 15.825318 0 0 0 15.685683-15.685683v-50.547927z m0 122.878939a15.825318 15.825318 0 0 0-15.685683-15.685683h-50.547927a15.825318 15.825318 0 0 0-15.685682 15.685683V593.58795a15.825318 15.825318 0 0 0 15.685682 15.685683h50.547927a15.825318 15.825318 0 0 0 15.685683-15.685683v-50.547927z"  horiz-adv-x="1024" />

    
    <glyph glyph-name="huodongcopy" unicode="&#58907;" d="M506.387914-128H143.117417c-26.463414 0-45.504787 14.639335-49.650892 37.417322-0.818984 4.094919-0.818984 7.319668-0.818984 11.3634v475.010597c0 18.734254 8.292211 26.105108 27.333584 26.105108h376.47661c7.422041 0 9.111195-1.689154 9.111195-9.008821V-128h0.818984m127.454352 0V412.068622c0 7.370854 1.586781 8.957635 9.060008 8.957635h363.21931c18.222389 0 26.463414-7.319668 26.463414-25.183751v-475.010598c0-30.148841-19.860357-48.831908-50.469876-48.831908h-348.324043M505.56893 494.222933H28.152568c-20.730527 0-28.152568 8.189838-28.152568 27.640703V625.260339c0 17.096287 8.292211 25.183751 25.64443 25.183752h473.270257c4.965089 0 7.473227-0.767797 7.473227-6.500684v-143.117417c0-1.637968-0.818984-3.275935-0.818984-6.55187m128.222149 0.818983V643.124423c0 6.500684 1.637968 8.087465 8.292211 8.087465h455.047867c20.679341 0 28.971552-8.138651 28.971552-28.459687V519.509058c0-16.277303-9.111195-25.234938-25.64443-25.234938H640.342949c-1.637968 0-3.275935 0.818984-6.603056 0.818983M564.27983 725.278734H228.342917c-6.603057 0-14.025097 0-20.67934 1.637968-15.714251 4.094919-23.136292 17.096287-19.860357 32.554606a39.618341 39.618341 0 0 0 4.965089 13.820351c15.714251 31.735622 32.247487 63.471244 48.012925 94.336695 14.844081 28.510873 43.866819 35.830541 71.149216 17.91527 67.054298-43.099022 133.238425-85.430246 199.422553-128.478081 33.06647-21.191206 67.822095-22.010189 100.939752 0 66.184127 43.047835 132.368255 85.37906 198.603568 128.478081 28.920365 18.683068 57.84073 11.3634 73.606168-18.734254 16.533235-30.865452 33.117657-61.78209 49.650893-93.517711 1.637968-4.094919 4.094919-8.138651 4.965089-12.182384 5.784073-18.734254-4.965089-34.192573-24.825446-35.830541h-350.013197"  horiz-adv-x="1126" />

    
    <glyph glyph-name="jiaoyicopy" unicode="&#58908;" d="M512 896C229.236364 896 0 666.763636 0 384s229.236364-512 512-512 512 229.236364 512 512S794.763636 896 512 896z m353.559273-514.513455h-62.370909a10.472727 10.472727 0 0 0-10.426182 10.565819v10.658909h-0.512C786.711273 555.985455 663.552 678.586182 512 678.586182c-155.089455 0-280.762182-128.279273-280.762182-286.533818 0-158.208 125.672727-286.487273 280.762182-286.487273 66.932364 0 128 24.343273 176.174545 64.279273L614.4 239.941818h199.214545v-198.004363l-66.327272 67.630545A357.282909 357.282909 0 0 0 512 20.666182c-200.983273 0-363.985455 166.306909-363.985455 371.432727 0 205.079273 163.002182 371.386182 363.985455 371.386182 192.139636 0 348.672-152.110545 362.216727-344.622546 1.024-1.629091 1.722182-26.810182 1.722182-26.810181 0-5.864727-4.654545-10.565818-10.379636-10.565819z m-207.872-30.114909v-63.162181H549.236364v-98.304h-71.819637v98.304H366.312727V351.418182h111.010909v58.414545H366.312727V472.715636h87.784728L366.266182 578.141091h76.334545l68.701091-91.042909 71.261091 91.042909h73.076364l-87.086546-105.425455h89.134546v-62.929454H549.236364V351.418182h108.497454z"  horiz-adv-x="1024" />

    
    <glyph glyph-name="xiaoshoucopy" unicode="&#58909;" d="M437.752337 808.833467c-74.105883-114.884589-36.520689-199.062321-36.520689-199.062321s-28.782561 47.206676-43.112428 0c-14.411752-47.329503 9.539597-66.244927 59.939786-125.283979 50.277361-59.120936 126.96262-148.94873 186.820521-170.238817 60.021671-21.290088 162.951057 87.45313 222.8499 158.324557 59.939786 70.953312 57.483237 111.158824 40.696822 137.157296-16.70453 26.039415-26.28507 0-26.28507 0s21.576685 121.681041-36.02938 194.968074C709.56944 927.771362 511.981047 923.718057 437.752337 808.833467z m39.50949-514.073736s34.064141-98.671369 65.753618-165.857973c31.525707-67.309432 29.151043-43.276198 29.151043-43.276198s24.319831 88.886117 24.319831 108.129081c0 19.242964-34.105083 36.111264-21.904225 67.309432 12.159916 31.280052 51.096211 43.276198 80.288197 23.992291 29.191986-19.120137 26.858265-33.572831 12.159915-64.893826-14.575522-31.198167-16.991128-48.066468-16.991127-48.066467l31.525707-91.301723 90.073448 206.677622c27.472402 63.051414 265.880443-184.118317 251.509634-317.181366-15.025889-137.976146-806.23925-109.971492-806.23925-38.526871 0 181.989309 87.78067 302.073593 260.394152 362.995998zM0.20009 457.997385c0 2.292779 191.201366 173.677986 199.922113 182.030251 27.677114-26.899207 195.295613-182.030251 195.295613-182.030251v-143.298668c0-36.971056-95.150316-27.595229-168.723946-150.832084-79.428405-132.899279-40.451167-260.230381-74.351537-262.8507-32.631154-2.620319-70.298232 0.777907-112.673696 0.777907-21.699513 0-39.468547 13.347247-39.468547 29.601411V457.997385z m195.131843 67.145662c-59.161879 0-107.146461-47.493273-107.146461-105.79536 0-58.424914 47.984583-105.79536 107.146461-105.795359 59.202821 0 107.269289 47.370445 107.269289 105.795359 0 58.343029-48.066468 105.754417-107.269289 105.754417z"  horiz-adv-x="1024" />

    
    <glyph glyph-name="zhanghaoguanlicopy" unicode="&#58910;" d="M1309.0304 586.5472h-455.7824s41.984 100.0448 0 175.9744h461.8752s143.9232-92.5696-6.0928-175.9744z m9.1136-312.5248H737.792l89.9584 175.9744 490.3936 1.536c131.8912-97.0752 0-177.5104 0-177.5104z m-521.8816-142.5408s158.976-34.9696 208.4352-104.704V-128H0v138.0864s26.624 85.504 229.4784 121.344c128 22.6304 153.8048 79.0016 145.3568 156.2112-2.4576 22.8352-145.408 145.6128-119.8592 427.776 0 0 23.8592 173.0048 199.3728 180.5824h116.9408s160.512-18.2272 195.0208-183.552c0 0 8.96-279.1936-129.024-423.2704 0 0-7.4752-112.2304 158.976-157.696z m517.4272 9.0624c152.8832-103.1168 2.8672-178.9952 2.8672-178.9952h-226.304v65.2288c7.4752 69.7344-39.0144 110.7968-39.0144 110.7968l262.4512 2.9696z"  horiz-adv-x="1382" />

    
    <glyph glyph-name="youwangonglvecopy" unicode="&#58911;" d="M218.489263 895.514947H66.290526C29.803789 895.514947 0.215579 853.746526 0.215579 802.223158V-33.684211c0-51.523368 29.642105-93.291789 66.128842-93.291789h152.144842V895.461053z m738.842948 0h-89.896422v-285.372631L729.734737 707.368421l-133.12-97.17221V895.514947H272.168421V-126.922105h685.16379c36.540632 0 66.128842 41.768421 66.128842 93.291789V802.223158c0 51.523368-29.642105 93.291789-66.128842 93.291789z"  horiz-adv-x="1024" />

    
    <glyph glyph-name="group" unicode="&#58912;" d="M512 668.5c-74.1 0-134.3-60.3-134.3-134.3S437.9 399.8 512 399.8s134.3 60.3 134.3 134.3S586.1 668.5 512 668.5zM512 896C229.2 896 0 666.8 0 384s229.2-512 512-512 512 229.2 512 512S794.8 896 512 896z m237.9-780.1c-14 0-25.3 11.3-25.3 25.3 0 116-93.4 206.8-212.6 206.8s-212.6-90.8-212.6-206.8c0-14-11.3-25.3-25.3-25.3s-25.3 11.3-25.3 25.3c0 70.1 27.5 135.3 77.4 183.6 24.5 23.7 53.2 42.1 84.5 54.6-10.5 6.9-20.3 14.9-29.4 24-34.9 34.9-54.2 81.4-54.2 130.8 0 49.4 19.2 95.9 54.2 130.8 34.9 34.9 81.4 54.2 130.8 54.2 49.4 0 95.9-19.2 130.8-54.2 34.8-35 54.1-81.5 54.1-130.9 0-49.4-19.2-95.9-54.2-130.8-9.1-9.1-18.9-17.1-29.4-24 31.3-12.5 59.9-30.9 84.5-54.6 49.9-48.2 77.4-113.4 77.4-183.6-0.1-13.9-11.4-25.2-25.4-25.2z"  horiz-adv-x="1024" />

    
    <glyph glyph-name="sanjiaoyoubiao" unicode="&#58913;" d="M377.478 106.889l279.655 279.655L378.325 665.35z"  horiz-adv-x="1024" />

    
    <glyph glyph-name="Triangle" unicode="&#58914;" d="M682.666667-71.111111L56.888889 839.111111h1251.555555z"  horiz-adv-x="1365" />

    
    <glyph glyph-name="Page" unicode="&#58915;" d="M495.5136 482.816L84.0704 894.1568 1.792 811.9296l411.4432-411.4432-411.4432-411.392 82.2784-82.2784 411.4432 411.392 411.392-411.392 82.2784 82.2784-411.392 411.392 411.392 411.4432L906.9056 894.208z"  horiz-adv-x="1024" />

    
    <glyph glyph-name="location" unicode="&#58916;" d="M512-128c-292.571429 252.123429-438.857143 454.802286-438.857143 607.963429C73.142857 709.778286 269.604571 896 512 896s438.857143-186.221714 438.857143-416.036571c0-153.161143-146.285714-355.84-438.857143-607.963429z m0 409.6a179.931429 179.931429 0 0 1 180.662857 179.2A179.931429 179.931429 0 0 1 512 640a179.931429 179.931429 0 0 1-180.662857-179.2A179.931429 179.931429 0 0 1 512 281.6z"  horiz-adv-x="1024" />

    
    <glyph glyph-name="fanhui" unicode="&#58917;" d="M1109.8112 497.732267a581.4272 581.4272 0 0 0 221.115733-331.502934c24.917333-96.0512 36.386133-195.037867 34.133334-294.229333 0 0-53.794133 84.5824-75.093334 115.848533a697.890133 697.890133 0 0 1-256.136533 206.301867A1014.5792 1014.5792 0 0 1 654.677333 247.466667v-269.653334L0 435.950933 655.633067 896v-273.954133s157.0816-11.8784 239.0016-28.740267a491.451733 491.451733 0 0 0 215.176533-95.573333z"  horiz-adv-x="1365" />

    
    <glyph glyph-name="xiangshangyuansanjia" unicode="&#58918;" d="M512 844.8C257.536 844.8 51.2 638.464 51.2 384S257.536-76.8 512-76.8 972.8 129.536 972.8 384 766.464 844.8 512 844.8zM324.096 246.784L512 571.904l187.904-325.12H324.096z"  horiz-adv-x="1024" />

    
    <glyph glyph-name="people" unicode="&#58919;" d="M457.5232 729.668267c-54.3744-84.309333-26.794667-146.090667-26.794667-146.090667s-21.0944 34.645333-31.607466 0c-10.581333-34.679467 6.997333-48.571733 43.963733-91.886933 36.864-43.349333 93.184-109.294933 137.079467-124.928 44.032-15.5648 119.534933 64.170667 163.498666 116.189866 43.963733 52.053333 42.154667 81.578667 29.832534 100.625067-12.253867 19.114667-19.285333 0-19.285334 0s15.837867 89.2928-26.4192 143.018667c-70.826667 90.3168-215.790933 87.313067-270.267733 3.072z m29.013333-377.173334s24.9856-72.362667 48.2304-121.685333c23.1424-49.3568 21.4016-31.744 21.4016-31.744s17.8176 65.194667 17.8176 79.325867c0 14.1312-24.9856 26.487467-16.042666 49.390933 8.9088 22.9376 37.4784 31.744 58.914133 17.578667 21.4016-13.994667 19.6608-24.576 8.874667-47.581867-10.683733-22.869333-12.458667-35.293867-12.458667-35.293867l23.176533-66.935466 66.048 151.586133c20.138667 46.250667 195.072-135.031467 184.5248-232.686933-11.025067-101.239467-591.530667-80.6912-591.530666-28.2624 0 133.5296 64.443733 221.627733 191.044266 266.308266zM136.533333 472.2688c0 1.706667 140.288 127.419733 146.670934 133.563733 20.309333-19.7632 143.2576-133.563733 143.2576-133.563733v-105.130667c0-27.136-69.768533-20.2752-123.767467-110.660266-58.2656-97.518933-29.661867-190.907733-54.545067-192.853334-23.927467-1.911467-51.575467 0.580267-82.670933 0.580267-15.940267 0-28.945067 9.796267-28.945067 21.7088V472.2688z m143.1552 49.220267c-43.383467 0-78.609067-34.816-78.609066-77.585067 0-42.871467 35.2256-77.6192 78.609066-77.6192 43.451733 0 78.711467 34.747733 78.711467 77.6192 0 42.8032-35.259733 77.585067-78.711467 77.585067z"  horiz-adv-x="1024" />

    
    <glyph glyph-name="number" unicode="&#58920;" d="M878.148267 471.381333h-270.1312s24.8832 60.040533 0 105.608534h273.749333s85.265067-55.534933-3.618133-105.608534z m5.393066-187.528533H539.579733l53.3504 105.608533 290.6112 0.9216c78.165333-58.2656 0-106.496 0-106.496z m-309.248-85.504s94.208-20.992 123.4944-62.805333V42.666667H102.4v82.875733s15.7696 51.268267 135.9872 72.8064c75.844267 13.550933 91.136 47.377067 86.152533 93.730133-1.467733 13.653333-86.152533 87.381333-71.0656 256.648534 0 0 14.165333 103.765333 118.1696 108.3392h69.290667s95.095467-10.922667 115.575467-110.114134c0 0 5.290667-167.5264-76.458667-253.986133 0 0-4.437333-67.310933 94.208-94.6176z m306.5856 5.461333c90.624-61.883733 1.706667-107.4176 1.706667-107.4176h-134.144V135.509333c4.471467 41.813333-23.108267 66.4576-23.108267 66.4576l155.5456 1.809067z"  horiz-adv-x="1024" />

    
    <glyph glyph-name="huifu" unicode="&#58921;" d="M271.500742 536.450585c-37.452585 0-67.892435-31.460811-67.892435-70.344342s30.43885-70.41134 67.892435-70.41134 67.892435 31.528809 67.892435 70.41134-30.370852 70.41234-67.892435 70.412339m271.501742 0c-37.453585 0-67.892435-31.528809-67.892435-70.412339s30.370852-70.41134 67.892435-70.41134c37.452585 0 67.823437 31.528809 67.823437 70.41134s-30.370852 70.344342-67.823437 70.344342m271.499741 0c-37.452585 0-67.891435-31.528809-67.891434-70.41234s30.43885-70.41234 67.892434-70.412339 67.892435 31.528809 67.892435 70.412339-30.43885 70.41234-67.892435 70.41234M950.288095 888.509283H135.78487C60.810702 888.510283 0 825.383668 0 747.617606v-528.020049c0-77.767062 62.103654-149.472352 138.780756-149.472353H345.726937a36654.341082 36654.341082 0 0 1 185.223002-192.917711 16.479377 16.479377 0 0 1 24.038092 0s109.29587 123.935317 180.456182 192.917711h211.779998c76.609105 0 138.780756 71.705291 138.780756 149.471353v528.090047c0 77.765062-60.809702 140.822679-135.715872 140.822679m67.823437-668.844729c0-38.882531-32.685765-79.67299-70.956319-79.67299h-208.172134c-25.195048 0-47.938189-25.876022-47.938189-25.876022L544.907412-37.604725 398.704936 114.047545s-27.78295 25.876022-51.685048 25.876022H138.780756c-38.270554 0-70.888322 40.858456-70.888321 79.67299V747.753601c0 38.951528 30.370852 70.41234 67.892435 70.41234h814.434228c37.453585 0 67.892435-31.460811 67.892434-70.41234v-528.020049"  horiz-adv-x="1088" />

    
    <glyph glyph-name="chakan" unicode="&#58945;" d="M991.2 388c0 5.6-0.8 10.4-1.6 10.4 0 2.4-0.8 8-2.4 10.4 0 0.8-0.8 1.6-0.8 1.6-0.8 1.6-0.8 3.2-1.6 4-87.2 187.2-277.6 312-472.8 312S126.4 601.6 38.4 416c-0.8-2.4-1.6-4-2.4-5.6 0-0.8-0.8-0.8-0.8-1.6-1.6-4.8-1.6-8-1.6-7.2-0.8-4-1.6-10.4-1.6-10.4v-6.4s0.8-6.4 0.8-7.2c0-1.6 0.8-4 0.8-6.4 0.8-2.4 0.8-4 1.6-5.6 0.8-1.6 0.8-3.2 1.6-4C125.6 175.2 316 50.4 510.4 50.4c195.2 0 385.6 124.8 472.8 309.6 1.6 2.4 2.4 4.8 3.2 6.4 0 0.8 0.8 0.8 0.8 1.6 1.6 4 1.6 8 1.6 8 1.6 2.4 2.4 6.4 2.4 12z m-64-2.4c0-0.8-0.8-1.6-0.8-1.6C848 220.8 681.6 111.2 512 111.2c-168.8 0-335.2 109.6-414.4 272.8 0 0.8 0 0.8-0.8 1.6v1.6V389.6 392c0 0.8 0 0.8 0.8 1.6C176 555.2 342.4 664.8 512 664.8c169.6 0 336-109.6 414.4-272.8v-1.6c0-1.6 0-2.4 0.8-3.2v-1.6zM512 541.6c-88 0-160-68.8-160-153.6s72-153.6 160-153.6S672 303.2 672 388s-72 153.6-160 153.6z m0-245.6c-52.8 0-96 41.6-96 92 0 51.2 43.2 92 96 92s96-41.6 96-92c0-51.2-43.2-92-96-92z m0 0"  horiz-adv-x="1024" />

    
    <glyph glyph-name="dianzan" unicode="&#58946;" d="M782.036 448.35h-172.29c66.761 246.563-45.998 259.156-45.998 259.156-47.791 0-37.884-37.791-41.498-44.092 0-120.58-128.074-215.065-128.074-215.065v-341.946c0-33.754 45.998-45.91 64.042-45.91h258.866c24.363 0 44.202 63.892 44.202 63.892 64.043 217.77 64.043 282.564 64.043 282.564 0.001 44.993-43.293 41.398-43.293 41.398z m0 0zM323.472 448.237H220.305c-21.306 0-21.635-20.927-21.635-20.927l21.306-344.864c0-21.95 21.987-21.95 21.987-21.95h89.291c18.602 0 18.437 14.52 18.437 14.52V422.085c0 26.486-26.221 26.151-26.221 26.151z m0 0z"  horiz-adv-x="1024" />

    


  </font>
</defs>
</svg>
